<svg xmlns="http://www.w3.org/2000/svg" width="13.728" height="13.729" viewBox="0 0 13.728 13.729">
  <path id="Path_13229" data-name="Path 13229" d="M-6722.109,8176.564c-.006-.047-.013-.094-.021-.141a6.868,6.868,0,0,0-5.675-5.675l-.141-.021a6.915,6.915,0,0,0-.96-.066,6.915,6.915,0,0,0-.96.066c-.113.016-.227.034-.338.057l-.134.027c-.133.028-.265.061-.4.1-.071.02-.141.041-.211.062l-.093.03-.108.036-.125.044-.019.007-.051.02a6.878,6.878,0,0,0-4.115,4.358v0a.005.005,0,0,1,0,0c-.015.046-.029.093-.043.141-.008.028-.016.056-.024.085l-.014.053c-.007.026-.015.052-.021.079s-.018.07-.026.1l-.019.083-.015.068c0,.016-.007.032-.01.047s-.007.028-.01.043c-.008.04-.016.081-.023.121h0c-.008.044-.016.089-.023.134h0c-.007.045-.014.09-.02.136a6.91,6.91,0,0,0-.067.96,6.915,6.915,0,0,0,.067.96c.013.091.027.181.043.271.007.041.015.081.023.121,0,.015.006.029.01.044s.006.032.01.048l.015.067.019.083c.008.035.017.07.026.1s.014.053.021.079l.014.052c.008.029.016.058.024.086s.025.083.038.125c0,.005,0,.011,0,.017l.006.017a6.878,6.878,0,0,0,4.111,4.344l.05.019.019.007.125.044.1.035.1.032c.069.021.139.042.209.062.173.048.35.089.529.124.111.022.225.041.338.056a6.915,6.915,0,0,0,.96.067,6.915,6.915,0,0,0,.96-.067l.141-.021a6.871,6.871,0,0,0,5.628-5.416h0c.008-.041.016-.082.023-.123h0c.008-.045.016-.09.023-.136s.015-.094.021-.141a6.915,6.915,0,0,0,.067-.96A6.91,6.91,0,0,0-6722.109,8176.564Zm-5.159,7.627h0Zm-.112.026-.022,0h0Zm.3-.075c.06-.016.118-.033.177-.051q-.119.037-.241.069Zm1.024-.373.083-.038-.106.049Zm-.05.023-.032.014Zm-.119.052-.033.014Zm-.133.055-.023.009Zm-.106.042-.046.017Zm-.1.036-.07.025Zm-.16.056-.041.014Zm-.118.038-.054.017Zm1.317-.575.055-.032c-.091.053-.184.1-.277.153Q-6725.635,8183.559-6725.525,8183.5Zm-.223.122q-.112.058-.227.112C-6725.9,8183.694-6725.823,8183.657-6725.748,8183.618Zm.431-.245.068-.042-.1.063Zm.132-.083h0c.035-.022.069-.044.1-.068l.072-.05c-.075.053-.152.1-.23.153Zm.254-.173.059-.042.029-.021.089-.067,0,0,.1-.075.011-.009.059-.047q-.2.163-.411.31Zm.2-1.865a.231.231,0,0,1-.048-.057,2.522,2.522,0,0,0-.849-.783.223.223,0,0,0-.092-.029l-.632-.056a.563.563,0,0,1-.513-.57c.007-.437.017-1.047.017-1.426a.838.838,0,0,0-.577-.793.221.221,0,0,0-.069-.013l-4.111-.121a.221.221,0,0,1-.214-.242l.091-.943a.22.22,0,0,1,.229-.2,11.419,11.419,0,0,0,1.287-.011c.61-.049.506-.767.484-.89a.252.252,0,0,1,0-.039v-.986a.221.221,0,0,1,.221-.221h.5a5.829,5.829,0,0,0,1.709-.241,1.576,1.576,0,0,0,.62-.937.6.6,0,0,1,.151-.238,5.605,5.605,0,0,1,3.225,5.069A5.576,5.576,0,0,1-6724.734,8181.251Zm.679,1.125c-.04.04-.08.079-.121.118C-6724.136,8182.456-6724.1,8182.417-6724.056,8182.376Zm-.147.143q-.179.168-.369.323l.052-.043c.042-.035.084-.07.125-.107.023-.019.046-.04.068-.06C-6724.285,8182.6-6724.244,8182.558-6724.2,8182.52Zm-11.042-2.362.008.02-.017-.041Zm-.085-.215-.007-.019,0,.009Zm-.009-4.811.009-.023Zm.087-.222.015-.035-.007.017Zm.1,5.469.006.015-.016-.035C-6735.154,8180.365-6735.151,8180.372-6735.148,8180.378Zm-.028-5.644q.026-.058.053-.116C-6735.142,8174.657-6735.159,8174.7-6735.176,8174.734Zm.478-.888-.006.01.047-.073Zm.011,7.374,0,0-.009-.015,0,.008Zm-.118-.19-.022-.038Zm-.1-.182-.055-.1Zm-.112-.21-.044-.089Zm-.052-6.121c.02-.039.039-.079.059-.117C-6735.035,8174.438-6735.055,8174.477-6735.074,8174.516Zm.132-.256.028-.05C-6734.924,8174.226-6734.934,8174.243-6734.942,8174.26Zm.122-.215.016-.026Zm.549-.8-.017.021c.033-.042.066-.083.1-.123C-6734.216,8173.18-6734.244,8173.214-6734.271,8173.248Zm.139-.168.037-.042Zm.157-.178.033-.036-.022.024Zm6.575-2.076h0l.016,0Zm.133.031h0Zm.123.031.057.016Zm.132.037.066.02-.009,0Zm.119.036.049.015Zm.13.041.039.013Zm.131.045.057.021-.013,0Zm.123.044.04.015Zm.13.05.018.007Zm.123.05.027.011Zm.12.052.025.011Zm.059.027.1.045-.08-.037Zm.107.049c.074.035.147.072.221.11C-6725.823,8171.392-6725.9,8171.355-6725.971,8171.32Zm.228.114c.08.042.159.084.236.129l-.019-.011Q-6725.633,8171.491-6725.743,8171.434Zm.426.242.058.036Zm.111.07c.058.038.116.076.172.115l-.047-.032c-.034-.023-.068-.046-.1-.068h0Zm.218.146.081.058-.023-.017Zm.117.083c.091.066.18.135.268.205l-.038-.03-.011-.009-.1-.075,0,0c-.03-.023-.059-.045-.089-.067Zm.307.237.038.031Zm.053.044c.039.033.078.066.116.1C-6724.433,8172.322-6724.472,8172.289-6724.511,8172.256Zm.118.1.063.056Zm.073.065c.039.035.078.071.116.107C-6724.241,8172.493-6724.28,8172.458-6724.319,8172.422Zm.142.131c.042.039.082.079.123.119C-6724.1,8172.632-6724.136,8172.593-6724.177,8172.554Zm1.308,1.706c.032.059.062.117.092.176l-.03-.058-.062-.118Zm-.8-1.168c-.021-.027-.044-.053-.067-.079q.226.259.426.54l-.046-.064-.02-.027c-.021-.03-.044-.06-.067-.089l0,0-.075-.1-.008-.01c-.023-.029-.046-.058-.07-.086a.247.247,0,0,0-.018-.022C-6723.635,8173.132-6723.652,8173.111-6723.671,8173.091Zm-.067,8.946c.037-.042.072-.083.107-.125l.043-.053q-.155.19-.323.369c.038-.041.076-.081.113-.123Zm.207-.248.009-.011c.025-.032.05-.063.075-.1l0-.005c.023-.029.045-.059.067-.089l.021-.029.042-.058.045-.064q-.148.212-.31.412Zm.321-.438c.023-.035.046-.069.068-.1h0c.012-.018.023-.036.034-.054-.049.078-.1.155-.153.231Zm-.092-7.785q.147.207.279.426c-.022-.037-.044-.073-.068-.11s-.033-.052-.05-.079h0c-.022-.035-.045-.069-.068-.1S-6723.271,8173.609-6723.3,8173.565Zm.245,7.547.022-.036-.065.1Zm.123-.208c.042-.073.082-.147.121-.222q-.075.144-.156.283Zm-.073-6.888c.043.072.084.145.125.218l-.051-.092Zm.307,6.438c-.036.076-.073.151-.112.226C-6722.773,8180.607-6722.736,8180.532-6722.7,8180.456Zm.039-.084.012-.025c-.016.036-.033.072-.049.107C-6722.686,8180.426-6722.673,8180.4-6722.661,8180.372Zm-.088-5.88.028.058Zm.052.107.043.094-.007-.015C-6722.672,8174.651-6722.685,8174.625-6722.7,8174.6Zm.225,5.318-.018.047Zm-.049.128-.01.025Zm-.051.125-.014.034Zm-.051.12-.014.032Zm-.013-5.559.013.03Zm.056.129.006.014Zm.047.115.01.027Zm.043.112c.045.118.087.238.125.359-.006-.019-.011-.037-.018-.055s-.013-.04-.02-.06-.017-.05-.026-.075-.009-.027-.014-.041l-.025-.07Zm.061,4.709-.025.07Zm.044-.13-.014.041Zm.1-.318c.006-.021.012-.042.018-.064-.021.081-.044.161-.068.241C-6722.321,8179.466-6722.3,8179.407-6722.288,8179.348Zm-.054.186-.017.055Zm-.015-4.067.012.038Zm.041.135.016.056-.007-.024C-6722.31,8175.622-6722.312,8175.612-6722.316,8175.6Zm.035.123c.015.055.029.11.043.165a.007.007,0,0,1,0,0c-.009-.038-.019-.075-.029-.112C-6722.272,8175.757-6722.277,8175.741-6722.281,8175.725Zm.042,3.438h0a.021.021,0,0,0,0,0Zm.027-3.161,0,.018h0C-6722.209,8176.013-6722.211,8176.007-6722.212,8176Zm0,3.026c0,.007,0,.015-.005.022l0-.021Zm.056-2.731c0-.027-.01-.055-.016-.082C-6722.162,8176.243-6722.156,8176.27-6722.151,8176.3Zm-1.586-3.285-.057-.065Zm-.2-.221-.115-.118Zm.134.145c-.033-.037-.067-.074-.1-.11Zm-3.792-2.151-.082-.016Zm-3.573.259-.06.021Zm-1.737.906.024-.018Zm.192-.133.033-.022Zm.218-.141h0Zm.19-.113.024-.014Zm.208-.115.037-.019Zm.22-.112.027-.013Zm.207-.095.046-.021Zm.227-.1.033-.013Zm-1.61.913-.1.075Zm-.182.144c-.042.034-.083.068-.124.1C-6733.319,8172.272-6733.278,8172.237-6733.236,8172.2Zm-.19.161-.048.042Zm-.189.171-.033.032Zm-.165.162-.017.017-.026.027Zm-.609.7-.038.049Zm-.152.21-.036.052Zm-.865,1.709-.013.039Zm-.079.246a.135.135,0,0,1,0,.013A.135.135,0,0,0-6735.486,8175.567Zm-.125.481v0h0Zm0,2.949v0a.007.007,0,0,1,0,0Zm.122.472s0,.006,0,.009S-6735.489,8179.472-6735.489,8179.469Zm.083.259-.014-.04Zm.838,1.671.048.068Zm.141.2.014.02c.074.1.15.195.229.29C-6734.268,8181.805-6734.35,8181.7-6734.428,8181.6Zm.3.373.023.027Zm.162.183.021.023Zm.144.151.055.056Zm.159.159.09.085Zm.18.167.075.067Zm.179.156.067.056Zm.139.113.122.1Zm.246.188.072.052Zm.172.121.084.057Zm.246.16.008.005.008,0Zm.164.1.063.037Zm.258.143,0,0h0Zm.2.1.034.016Zm.207.1.052.023Zm.227.1.038.015Zm.216.082.063.022Zm.263.089h0Zm-3.534-6.548a5.59,5.59,0,0,1,.117-1.141.239.239,0,0,1,.043.034l2.939,2.916a.231.231,0,0,1,.069.157,4.015,4.015,0,0,0,.264,1.511,4.19,4.19,0,0,0,.7.608.232.232,0,0,0,.1.041l.451.067a.233.233,0,0,1,.2.25l-.09,1.1A5.6,5.6,0,0,1-6734.5,8177.524Zm6.913,6.737-.089.017Zm3.536-1.887.117-.121Zm1.875-3.479Z" transform="translate(6735.77 -8170.66)" fill="#777"/>
</svg>
